{"title":"Nickelback - Live at Home DVD","uid":5960065,"size":633473346,"categoryP":"video","categoryS":"music_videos","magnet":"?xt=urn:btih:0b1a17b6adf45460ae488da61fa47c4976f10b71&amp;dn=Nickelback+-+Live+at+Home+DVD&amp;tr=udp%3A%2F%2Ftracker.openbittorrent.com%3A80&amp;tr=udp%3A%2F%2Fopen.demonii.com%3A1337&amp;tr=udp%3A%2F%2Ftracker.coppersurfer.tk%3A6969&amp;tr=udp%3A%2F%2Fexodus.desync.com%3A6969","seeders":1,"leechers":0,"uploader":null,"files":2,"time":1289915921,"description":"Description:\nLive at Home is a live concert DVD released in 2002 filmed in Nickelback's home province of Alberta, Canada during the tour supporting their album Silver Side Up. \n\nMore Info Here &lt;a href=&quot;\nhttp://www.imdb.com/title/tt0395224/&quot; rel=&quot;nofollow&quot; target=&quot;_NEW&quot;&gt;\nhttp://www.imdb.com/title/tt0395224/&lt;/a&gt;\n\nSee Track listings on enclosed Text File with torrent.\n\nFile Description:\nComplete name Nickelback - Live at home DVDNickelback live Edmonton, Canada Feb 25th 2002(live at home).avi\nFormat : AVI\nFormat/Info : Audio Video Interleave\nFile size : 604 MiB\nDuration : 1h 16mn\nOverall bit rate : 1 105 Kbps\n\nVideo\nID : 0\nFormat : MPEG-4 Visual\nFormat profile : Simple@L3\nFormat settings, BVOP : Yes\nFormat settings, QPel : No\nFormat settings, GMC : No warppoints\nFormat settings, Matrix : Default (H.263)\nCodec ID : XVID\nCodec ID/Hint : XviD\nDuration : 1h 16mn\nBit rate : 900 Kbps\nWidth : 720 pixels\nHeight : 480 pixels\nDisplay aspect ratio : 3:2\nFrame rate : 29.970 fps\nStandard : NTSC\nColor space : YUV\nChroma subsampling : 4:2:0\nBit depth : 8 bits\nScan type : Progressive\nBits/(Pixel*Frame) : 0.087\nStream size : 492 MiB (81%)\n\nAudio\nID : 1\nFormat : MPEG Audio\nFormat version : Version 1\nFormat profile : Layer 3\nMode : Joint stereo\nMode extension : MS Stereo\nCodec ID : 55\nCodec ID/Hint : MP3\nDuration : 1h 16mn\nBit rate mode : Constant\nBit rate : 192 Kbps\nChannel(s) : 2 channels\nSampling rate : 44.1 KHz\nStream size : 105 MiB (17%)\nAlignment : Aligned on interleaves\nInterleave, duration : 26 ms (0.78 video frame)\nWriting library : LAME3.97\n\n\nAnother Sledgeka Quality DVD Rip.. Rock on Dudes!!","torrent":{"xt":"urn:btih:0b1a17b6adf45460ae488da61fa47c4976f10b71","amp;dn":"Nickelback+-+Live+at+Home+DVD","amp;tr":["udp%3A%2F%2Ftracker.openbittorrent.com%3A80","udp%3A%2F%2Fopen.demonii.com%3A1337","udp%3A%2F%2Ftracker.coppersurfer.tk%3A6969","udp%3A%2F%2Fexodus.desync.com%3A6969"],"infoHash":"0b1a17b6adf45460ae488da61fa47c4976f10b71","infoHashBuffer":{"type":"Buffer","data":[11,26,23,182,173,244,84,96,174,72,141,166,31,164,124,73,118,241,11,113]},"announce":[],"urlList":[]}}